<?xml version="1.0" encoding="UTF-8"?>
<svg id="Calque_1" xmlns="http://www.w3.org/2000/svg" version="1.1" viewBox="0 0 990 292">
  <!-- Generator: Adobe Illustrator 29.1.0, SVG Export Plug-In . SVG Version: 2.1.0 Build 142)  -->
  <defs>
    <style>
      .st0 {
        fill: #474f4a;
      }

      .st1 {
        fill: #171717;
        font-family: SpaceGrotesk-Bold, 'Space Grotesk';
        font-size: 136.5px;
        font-weight: 700;
      }
    </style>
  </defs>
  <text class="st1" transform="translate(297.9 193.4)"><tspan x="0" y="0">barecms.</tspan></text>
  <path class="st0" d="M214.2,68.9h-89.9c-17.7,0-32.1,14.4-32.1,32.1v89.9c0,17.7,14.4,32.1,32.1,32.1h89.9c17.7,0,32.1-14.4,32.1-32.1v-89.9c0-17.7-14.4-32.1-32.1-32.1ZM164.4,186.1c0,5.8-4.7,10.5-10.5,10.5h-24.7c-5.8,0-10.5-4.7-10.5-10.5v-24.7c0-5.8,4.7-10.5,10.5-10.5h24.7c5.8,0,10.5,4.7,10.5,10.5v24.7ZM219.8,186.1c0,5.8-4.7,10.5-10.5,10.5h-24.7c-5.8,0-10.5-4.7-10.5-10.5v-24.7c0-5.8,4.7-10.5,10.5-10.5h24.7c5.8,0,10.5,4.7,10.5,10.5v24.7ZM219.8,130.7c0,5.7-4.6,10.3-10.3,10.3h-80.4c-5.7,0-10.3-4.6-10.3-10.3v-25.1c0-5.7,4.6-10.3,10.3-10.3h80.4c5.7,0,10.3,4.6,10.3,10.3v25.1Z"/>
  <rect class="st0" x="129" y="105.4" width="80.4" height="25.6"/>
  <rect class="st0" x="128.8" y="160.9" width="25.6" height="25.6"/>
  <rect class="st0" x="184.1" y="160.9" width="25.6" height="25.6"/>
</svg>